HIERARCHY
ROOT Hips
{
  OFFSET 115.831 95.5908 276.424
  CHANNELS 6 Xposition Yposition Zposition Zrotation Xrotation Yrotation
  JOINT RightUpLeg
  {
    OFFSET -8.9458 -8.66707 0.101652
    CHANNELS 3 Zrotation Xrotation Yrotation
    JOINT RightLeg
    {
      OFFSET 0 -44.4227 1.3727
      CHANNELS 3 Zrotation Xrotation Yrotation
      JOINT RightFoot
      {
        OFFSET 0.253549 -42.0924 -1.46059
        CHANNELS 3 Zrotation Xrotation Yrotation
        JOINT RightToes
        {
          OFFSET 0.04 -4.41509 8.4991
          CHANNELS 3 Zrotation Xrotation Yrotation
          End Site
          {
            OFFSET -0.08 -0.137448 9.77979
          }
        }
      }
    }
  }
  JOINT Spine
  {
    OFFSET 0 11.8905 0
    CHANNELS 3 Zrotation Xrotation Yrotation
    JOINT Spine1
    {
      OFFSET 0 25.6574 0.127663
      CHANNELS 3 Zrotation Xrotation Yrotation
      JOINT HEad
      {
        OFFSET 0 8.73416 0.011341
        CHANNELS 3 Zrotation Xrotation Yrotation
        End Site
        {
          OFFSET -0.29 12.7742 2.51395
        }
      }
      JOINT LeftShoulder1
      {
        OFFSET 8.99 -0.362252 -0.22
        CHANNELS 3 Zrotation Xrotation Yrotation
        JOINT LeftArm
        {
          OFFSET 10.2827 -0.00338 0.322123
          CHANNELS 3 Zrotation Xrotation Yrotation
          JOINT LeftForeArm
          {
            OFFSET 32.7669 0.099144 -1.42434
            CHANNELS 3 Zrotation Xrotation Yrotation
            JOINT LeftHand
            {
              OFFSET 27.5643 0.085362 1.02216
              CHANNELS 3 Zrotation Xrotation Yrotation
              End Site
              {
                OFFSET 16.7443 -0.6 1.50291
              }
            }
          }
        }
      }
      JOINT RightShoulder
      {
        OFFSET -8.99 -0.362252 -0.22
        CHANNELS 3 Zrotation Xrotation Yrotation
        JOINT RightArm
        {
          OFFSET -10.2827 -0.00338 0.322123
          CHANNELS 3 Zrotation Xrotation Yrotation
          JOINT RightForeArm
          {
            OFFSET -32.8971 0.099144 -1.42434
            CHANNELS 3 Zrotation Xrotation Yrotation
            JOINT RightHand
            {
              OFFSET -27.4921 0.085362 1.02216
              CHANNELS 3 Zrotation Xrotation Yrotation
              End Site
              {
                OFFSET -16.6312 -0.6 1.50291
              }
            }
          }
        }
      }
    }
  }
  JOINT LeftUpLeg
  {
    OFFSET 8.9458 -8.66707 0.101652
    CHANNELS 3 Zrotation Xrotation Yrotation
    JOINT LeftLeg
    {
      OFFSET 0 -44.4227 1.3727
      CHANNELS 3 Zrotation Xrotation Yrotation
      JOINT LeftFoot
      {
        OFFSET -0.253549 -42.0924 -1.46059
        CHANNELS 3 Zrotation Xrotation Yrotation
        JOINT LeftToes
        {
          OFFSET -0.04 -4.41509 8.4991
          CHANNELS 3 Zrotation Xrotation Yrotation
          End Site
          {
            OFFSET 0.08 -0.047448 9.77979
          }
        }
      }
    }
  }
}
MOTION
Frames:	18
Frame Time:	0.0166667
115.831 95.5908 276.424 -7.21214 3.22654 -170.576 -6.21313 -24.8188 4.97158 2.77951 33.2808 -2.6957 3.69145 -6.18328 -0.0851867 11.0299 -5.11612 -4.25993 -8.48833 11.2078 -4.34866 -6.33656 -2.40807 -4.3016 3.71851 1.99663 6.40227 -9.38015e-016 -3.97569e-016 1.98785e-016 -108.335 -39.0792 -35.2215 10.9919 7.148 -19.1504 0.368473 9.90896 -0.00117926 23.6994 0.515781 -1.78221 72.9445 -25.2269 7.91251 1.03182 13.2747 -1.12905 -0.369625 9.91382 0.00119886 -14.0699 -1.07814 -3.78278 0.325375 26.5729 -4.17012 1.54713 -13.9753 0.174556 1.76222 -6.1913 -1.45715 
115.688 95.5449 274.986 -7.4897 3.68753 -170.698 -6.41406 -24.6013 3.1827 2.012 29.228 -1.33118 4.05911 -5.59666 -0.09694 10.4453 -4.47159 -4.11988 -8.38536 11.1275 -4.2854 -6.6624 -1.47382 -4.08529 3.79614 1.22615 6.02661 1.52816e-015 -1.59028e-015 -0 -107.666 -37.6453 -35.4384 9.98067 7.38754 -19.4744 0.368473 9.90896 -0.00117926 23.3552 0.489093 -1.85373 73.6313 -24.4974 8.24641 1.03182 13.2747 -1.12905 -0.369625 9.91382 0.00119886 -14.1443 0.427167 -2.89028 0.498627 26.3898 -4.4806 1.14312 -13.9557 0.136396 2.07792 -6.50091 -1.54192 
115.554 95.4819 273.537 -7.74618 4.07287 -170.806 -6.57601 -24.4047 1.53359 1.44692 25.3045 0.00689349 4.32475 -5.14558 -0.106004 9.67512 -3.42819 -3.96185 -8.2644 11.0477 -4.25672 -6.94913 -0.713253 -3.91867 3.80566 0.639038 5.76126 2.83268e-015 -7.95139e-016 1.98785e-016 -107.077 -36.4283 -35.7055 8.99461 7.63445 -19.7264 0.368473 9.90896 -0.00117926 22.937 0.464628 -1.91454 74.32 -23.765 8.5192 1.03182 13.2747 -1.12905 -0.369625 9.91382 0.00119886 -14.2307 1.82494 -2.13016 0.595141 26.2721 -4.72592 0.751717 -13.901 0.0994262 2.27136 -6.83519 -1.62269 
115.446 95.3737 272.066 -7.95036 4.24969 -170.883 -6.68977 -24.3262 0.188564 1.09665 21.7129 1.55657 4.30322 -5.2231 -0.103354 7.93126 -1.03752 -3.5387 -8.08962 10.9542 -4.32416 -7.11457 -0.415609 -3.88156 3.65193 0.587936 5.82235 1.6524e-015 0 1.98785e-016 -106.749 -35.766 -36.1075 8.07213 7.90695 -19.7689 0.368473 9.90896 -0.00117926 22.3159 0.445562 -1.94873 75.0428 -23.013 8.63592 1.03182 13.2747 -1.12905 -0.369625 9.91382 0.00119886 -14.2369 2.92076 -1.69717 0.463646 26.3221 -4.81036 0.351262 -13.7336 0.0617037 2.05699 -7.22126 -1.68392 
115.359 95.2363 270.56 -8.12313 4.31208 -170.926 -6.72416 -24.274 -0.824278 0.845037 18.4365 3.03144 4.14041 -5.19213 -0.105391 6.81299 1.45193 -3.53197 -7.8982 10.8917 -4.44105 -7.20502 -0.41116 -3.9254 3.41027 0.755287 5.99454 -7.76503e-016 0 -1.98785e-016 -106.513 -35.4585 -36.4884 7.18089 8.18751 -19.7229 0.368473 9.90896 -0.00117926 21.5825 0.431244 -1.96125 75.7632 -22.2778 8.65435 1.03182 13.2747 -1.12905 -0.369625 9.91382 0.00119886 -14.2202 3.85389 -1.52583 0.264667 26.4973 -4.76642 0.0574555 -13.5468 0.0338942 1.80589 -7.6766 -1.7557 
115.292 95.0785 268.997 -8.26834 4.29459 -170.954 -6.58082 -24.1793 -1.36469 0.405608 15.4615 4.4099 3.83261 -4.25392 -0.133824 8.98888 2.80744 -5.19657 -7.71461 10.8981 -4.57464 -7.19453 -0.688711 -4.03447 3.04225 0.992496 6.10576 8.69683e-016 -7.95139e-016 9.93923e-017 -106.263 -35.5051 -36.7198 6.24218 8.49066 -19.6142 0.368473 9.90896 -0.00117926 20.6673 0.42309 -1.94169 76.5028 -21.5494 8.55618 1.03182 13.2747 -1.12905 -0.369625 9.91382 0.00119886 -14.2531 4.66523 -1.82284 0.0695752 26.8171 -4.35067 0.0209547 -13.4851 0.030983 1.97346 -8.34771 -1.89826 
115.247 94.893 267.393 -8.40295 4.24346 -170.893 -6.42185 -24.0674 -1.59283 0.0581651 13.002 5.18654 3.64582 -3.2864 -0.1636 10.8314 3.90166 -6.53264 -7.53866 10.9791 -4.74522 -7.23404 -1.06072 -4.19273 2.7797 1.14375 6.24436 9.93923e-017 0 -2.98177e-016 -106.004 -35.6606 -36.845 5.43953 8.73593 -19.5906 0.368473 9.90896 -0.00117926 19.921 0.418073 -1.92018 77.1136 -20.949 8.47046 1.03182 13.2747 -1.12905 -0.369625 9.91382 0.00119886 -14.2314 5.4578 -1.97049 -0.0166633 27.1965 -4.29052 0.114025 -13.3169 0.0377831 2.01662 -8.87445 -2.00642 
115.236 94.6664 265.782 -8.57111 4.22577 -170.63 -6.43796 -23.9341 -1.58909 -0.0255383 11.2505 4.42727 4.00943 -3.07735 -0.172373 8.08273 5.44185 -5.18077 -7.35018 11.2059 -5.01832 -7.59211 -1.29493 -4.41124 2.97837 0.884064 6.52427 1.96261e-015 0 2.48481e-017 -105.612 -35.6385 -36.8414 4.95545 8.82001 -19.9177 0.368473 9.90896 -0.00117926 19.8093 0.413037 -1.93313 77.4419 -20.5802 8.58993 1.03182 13.2747 -1.12905 -0.369625 9.91382 0.00119886 -14.1222 6.39664 -1.1274 0.272047 27.4911 -5.6852 0.273585 -12.6925 0.0431813 1.20632 -8.78241 -1.94115 
115.238 94.4252 264.092 -8.69404 4.21348 -170.307 -6.44457 -23.7814 -1.4523 -0.0961705 10.2235 3.4083 4.42198 -3.09844 -0.174005 4.7314 6.75594 -3.45867 -7.23077 11.4192 -5.22626 -7.88391 -1.51465 -4.59222 3.2377 0.573415 6.69607 2.72591e-015 0 -3.10601e-017 -105.347 -35.5675 -36.7656 4.72264 8.82244 -20.2678 0.368473 9.90896 -0.00117926 19.9168 0.409784 -1.95134 77.5017 -20.4896 8.69332 1.03182 13.2747 -1.12905 -0.369625 9.91382 0.00119886 -13.9339 7.33879 -0.158874 0.608463 27.8681 -7.21318 0.456527 -12.1103 0.0500032 0.572949 -8.5617 -1.86049 
115.239 94.1692 262.236 -8.69462 4.18517 -170.054 -6.26691 -23.6138 -1.2705 -0.229178 10.0967 3.36317 4.43039 -3.23687 -0.168957 4.35999 6.65621 -3.22249 -7.34739 11.4456 -5.17558 -7.71451 -1.83764 -4.61917 3.20514 0.513602 6.50056 2.42579e-015 3.97569e-016 -9.93923e-017 -105.512 -35.4869 -36.6797 4.7512 8.78655 -20.3743 0.368473 9.90896 -0.00117926 19.9259 0.409338 -1.95353 77.2318 -20.7995 8.58637 1.03182 13.2747 -1.12905 -0.369625 9.91382 0.00119886 -13.5852 8.13968 0.174902 0.611093 28.6023 -7.5721 0.598662 -12.1289 0.0587884 1.11857 -8.61988 -1.90413 
115.233 93.9651 260.299 -8.61228 4.18848 -169.785 -6.06197 -23.418 -1.15466 -0.228731 10.6432 3.37598 4.32111 -3.03386 -0.175035 4.67173 7.36376 -3.54925 -7.43776 11.3999 -5.00586 -7.37801 -2.04884 -4.55945 3.06888 0.551603 6.07999 2.73329e-016 3.97569e-016 -0 -105.866 -35.3781 -36.546 4.98751 8.72184 -20.3201 0.368473 9.90896 -0.00117926 20.0097 0.410869 -1.95233 76.7117 -21.3858 8.3866 1.03182 13.2747 -1.12905 -0.369625 9.91382 0.00119886 -13.1291 8.97705 0.381102 0.617956 29.3521 -7.76962 0.701009 -12.2182 0.0654323 2.19941 -8.73022 -1.98818 
115.186 93.8925 258.325 -8.46925 4.32076 -169.472 -5.96975 -23.093 -1.37666 0.154265 11.6678 2.84529 4.30258 -1.50632 -0.228211 4.70262 11.8455 -4.50481 -7.21523 11.3591 -4.75906 -7.0331 -1.85624 -4.41232 2.85934 0.67815 5.43443 -3.97569e-016 0 3.97569e-016 -106.318 -35.1877 -36.4047 5.40111 8.66416 -20.0205 0.368473 9.90896 -0.00117926 20.1815 0.410252 -1.96316 76.0182 -22.1585 8.11283 1.03182 13.2747 -1.12905 -0.369625 9.91382 0.00119886 -12.6455 10.119 0.890732 0.988467 29.7228 -8.61689 0.763118 -12.0215 0.066657 3.52047 -8.86722 -2.08438 
115.162 93.9128 256.356 -8.24409 4.41047 -169.072 -5.85649 -22.9076 -1.53786 0.664111 13.2403 2.07312 4.16123 -0.114335 -0.274527 4.15884 16.6577 -5.07514 -6.91515 11.263 -4.5356 -6.699 -1.60782 -4.2653 2.70712 0.764696 4.7314 1.98785e-016 0 -3.97569e-016 -106.715 -35.0587 -36.0851 5.93623 8.57516 -19.7126 0.368473 9.90896 -0.00117926 20.6038 0.418395 -1.95637 75.0919 -23.138 7.86599 1.03182 13.2747 -1.12905 -0.369625 9.91382 0.00119886 -12.0565 11.1458 1.18338 1.35402 30.0956 -9.42881 0.724629 -11.5772 0.0604094 5.03794 -8.83471 -2.16554 
115.234 94.0382 254.492 -7.96077 4.28702 -168.441 -5.7255 -23.1922 -1.12941 1.16032 15.4964 0.981301 3.57805 -0.394372 -0.254419 1.17277 19.4159 -3.53202 -6.63984 11.0174 -4.5528 -6.65741 -1.42138 -4.25189 2.86296 0.526612 4.18567 -1.01877e-015 0 -3.97569e-016 -106.708 -35.0859 -35.3908 6.44873 8.42022 -19.7543 0.368473 9.90896 -0.00117926 21.624 0.450542 -1.89615 73.9096 -24.293 7.87397 1.03182 13.2747 -1.12905 -0.369625 9.91382 0.00119886 -11.2939 11.6847 0.60866 1.36636 30.7276 -9.67207 0.446493 -10.6874 0.0383281 6.17919 -8.27453 -2.14033 
115.335 94.1968 252.598 -7.48709 4.04769 -167.866 -5.31731 -23.6615 -0.758219 1.59203 18.0391 0.0895674 3.05641 -1.13413 -0.220029 -1.95831 20.0026 -1.55423 -6.5039 10.8031 -4.5016 -6.2689 -1.69633 -4.23253 2.96881 0.420706 3.6558 6.4605e-016 0 3.97569e-016 -106.774 -35.3462 -34.4256 7.16868 8.22781 -19.6989 0.368473 9.90896 -0.00117926 22.7002 0.489552 -1.81637 72.4747 -25.6869 7.78981 1.03182 13.2747 -1.12905 -0.369625 9.91382 0.00119886 -10.2907 11.8669 -0.0358273 1.30168 31.6343 -9.69968 0.16597 -9.70385 0.0163954 8.23799 -7.6473 -2.17286 
115.42 94.2814 250.521 -6.6106 3.68457 -167.664 -4.24259 -24.2791 -0.868465 1.6605 20.7004 -0.168439 3.3183 -1.46072 -0.212797 -2.71049 16.2803 -0.496583 -6.78098 10.7592 -4.04124 -4.67593 -3.18934 -4.08601 2.66124 0.943685 3.06748 1.14301e-015 1.98785e-016 -0 -107.415 -36.0164 -33.1762 8.43607 8.02028 -18.9812 0.368473 9.90896 -0.00117926 23.2836 0.525699 -1.72595 70.5911 -27.5236 7.11217 1.03182 13.2747 -1.12905 -0.369625 9.91382 0.00119886 -8.88763 11.6344 -0.0163218 1.36416 33.0207 -9.81096 0.211776 -9.08446 0.0123239 12.3091 -7.08235 -2.44325 
115.5 94.4091 248.419 -5.61783 3.34113 -167.607 -2.95307 -24.6355 -1.46268 1.47069 22.9506 0.521917 3.38891 -1.89238 -0.205331 -2.26128 11.9812 -0.0859917 -7.09221 10.9142 -3.4843 -2.79631 -4.94764 -3.89745 2.27119 1.69529 2.43357 -2.5345e-015 0 -7.95139e-016 -108.132 -36.9073 -31.7634 9.79674 7.77142 -18.3167 0.368473 9.90896 -0.00117926 23.7429 0.551975 -1.66397 68.6878 -29.3581 6.47283 1.03182 13.2747 -1.12905 -0.369625 9.91382 0.00119886 -7.37542 11.1926 0.225035 1.44118 34.5622 -9.65068 0.165766 -8.31363 0.01163 18.4297 -7.21533 -2.80872 
115.562 94.6929 246.395 -4.75545 3.24996 -167.632 -1.76729 -24.1112 -3.20773 0.871946 24.0357 3.5753 2.09162 -2.84457 -0.176058 -0.999462 11.0077 -0.713627 -7.15298 11.4024 -2.98695 -1.32628 -6.0836 -3.65407 1.97579 2.45604 1.64651 2.88859e-016 -2.48481e-017 -0 -108.6 -37.8132 -30.2775 10.8685 7.43458 -18.4358 0.368473 9.90896 -0.00117926 24.3075 0.550821 -1.69905 67.3061 -30.7684 6.55846 1.03182 13.2747 -1.12905 -0.369625 9.91382 0.00119886 -6.0151 10.908 0.353706 1.26725 35.8574 -8.58107 -0.328885 -7.03981 -0.00601752 27.4763 -8.81146 -3.38738 
